<svg width="360" height="392" viewBox="0 0 360 392" fill="none" xmlns="http://www.w3.org/2000/svg">
    <path d="M17.4106 171.375L17.4106 295.675" stroke="#75B734" stroke-width="34.8214"/>
    <path d="M342.411 182.411L342.411 268.376" stroke="#76B835" stroke-width="34.8214"/>
    <path d="M63.8396 96.4458L63.8396 367.119" stroke="#217F2B" stroke-width="34.8214"/>
    <path d="M295.982 118.518L295.982 335.754" stroke="#217F2B" stroke-width="34.8214"/>
    <path d="M110.268 77.8584L110.268 391.514" stroke="#044837" stroke-width="34.8214"/>
    <path d="M203.124 96.4458L203.124 391.515" stroke="black" stroke-width="34.8214"/>
    <path d="M249.553 77.8584L249.553 383.382" stroke="#044837" stroke-width="34.8214"/>
    <path d="M156.696 102.254L156.696 377.574" stroke="#217F2B" stroke-width="34.8214"/>
    <path d="M198.151 23.6032C182.24 39.3909 179.023 77.7187 179.023 77.7187C179.023 77.7187 220.243 75.7115 236.772 58.6588C252.1 42.8454 270.779 2.07845e-05 270.779 2.07845e-05C270.779 2.07845e-05 214.66 7.22299 198.151 23.6032Z" fill="#217F29"/>
</svg>
